PathFileType	4	(X/Y/Z)	TVC_41_BWA_02_walk_RCNL2025.trc
DataRate	CameraRate	NumFrames	NumMarkers	Units	OrigDataRate	OrigDataStartFrame	OrigNumFrames
100	100	4	27	mm	100	67	531
Frame#	Time	R_Shoulder			L_Shoulder			C7			J_Notch			R_Elbow			L_Elbow			R_Wrist			L_Wrist			R_Asis			L_Asis			R_Psis			L_Psis			Sacral			Thoracic			Sternum			R_Thigh_Lateral			R_Knee_Lateral			R_Shank_Lateral			R_Ankle_Lateral			R_Heel			R_Toe			L_Thigh_Lateral			L_Knee_Lateral			L_Shank_Lateral			L_Ankle_Lateral			L_Heel			L_Toe		
		X1	Y1	Z1	X2	Y2	Z2	X3	Y3	Z3	X4	Y4	Z4	X5	Y5	Z5	X6	Y6	Z6	X7	Y7	Z7	X8	Y8	Z8	X9	Y9	Z9	X10	Y10	Z10	X11	Y11	Z11	X12	Y12	Z12	X13	Y13	Z13	X14	Y14	Z14	X15	Y15	Z15	X16	Y16	Z16	X17	Y17	Z17	X18	Y18	Z18	X19	Y19	Z19	X20	Y20	Z20	X21	Y21	Z21	X22	Y22	Z22	X23	Y23	Z23	X24	Y24	Z24	X25	Y25	Z25	X26	Y26	Z26	X27	Y27	Z27
67	0.66000000	-1366.828735	1258.385498	-52.527111	-1329.207520	1260.928467	-388.257660	-1398.600586	1315.833008	-221.691513	-1274.566406	1213.305786	-204.982651	-1487.564209	988.332031	-24.497673	-1387.734619	969.830872	-445.130127	-1298.058655	914.160095	-32.188877	-1310.163635	778.085205	-466.561981	-1321.554321	885.165039	-80.626740	-1300.409058	854.489929	-324.999878	-1479.112671	873.139709	-165.173782	-1476.824219	858.367249	-251.658646	-1477.968445	865.753479	-208.416214	-1443.044678	1024.593994	-232.995834	-1248.606689	1031.581665	-212.146149	-1314.409790	674.441467	23.970211	-1250.994019	447.194885	-39.307976	-1270.342163	319.429321	35.691158	-1241.020020	106.916245	-16.886728	-1284.207031	81.267860	-64.390305	-1130.320801	60.003571	-12.729880	-1366.402588	581.468750	-402.986786	-1364.005859	395.557251	-302.548370	-1405.799072	257.946350	-356.330109	-1463.595947	60.953114	-277.693939	-1510.306030	44.574154	-237.058990	-1344.135132	34.133644	-261.966248
68	0.67000000	-1363.545410	1257.917847	-50.828220	-1328.412109	1260.650391	-386.834686	-1396.723877	1315.277222	-219.772644	-1272.207397	1213.178711	-203.951782	-1483.251099	987.518799	-22.158922	-1386.862427	969.398743	-443.259460	-1293.896362	913.608154	-31.708563	-1309.219604	777.778259	-465.388107	-1317.424072	884.270264	-79.465729	-1297.817627	854.268250	-324.020477	-1475.514404	872.775208	-163.033646	-1473.741943	858.154907	-249.595764	-1474.628174	865.465057	-206.314705	-1439.988281	1023.860046	-230.835464	-1245.601929	1031.575928	-211.367249	-1310.206909	672.861877	24.197124	-1249.578613	445.327667	-40.200603	-1269.368286	317.326721	34.371330	-1241.231323	104.928146	-19.162016	-1284.717529	79.564369	-66.684006	-1130.739380	57.644169	-15.524683	-1364.592896	581.457520	-402.217529	-1362.763550	395.345947	-302.016998	-1405.033569	257.984894	-356.081879	-1463.584106	60.971310	-277.737762	-1510.321289	44.601944	-237.117630	-1344.222168	34.159309	-262.033417
69	0.68000000	-1360.176147	1257.424927	-49.074009	-1327.545776	1260.365723	-385.339020	-1394.776123	1314.700317	-217.787949	-1269.765503	1213.050049	-202.869064	-1478.793457	986.669861	-19.748692	-1385.895508	968.958008	-441.332397	-1289.536560	913.044708	-31.208555	-1308.140686	777.478577	-464.179779	-1313.189453	883.362610	-78.279449	-1295.126587	854.023438	-323.000214	-1471.813599	872.425903	-160.861786	-1470.558472	857.951965	-247.498581	-1471.186035	865.188934	-204.180183	-1436.814087	1023.105286	-228.639221	-1242.494141	1031.572998	-210.552826	-1305.939087	671.251282	24.432440	-1248.298950	443.425232	-41.020355	-1268.593140	315.186829	33.113522	-1241.603760	102.918938	-21.359129	-1285.365112	77.813225	-68.935165	-1131.323364	55.366013	-18.100296	-1362.738770	581.445374	-401.426483	-1361.498169	395.126526	-301.466248	-1404.259155	258.027130	-355.825745	-1463.569336	60.986633	-277.792297	-1510.336548	44.633709	-237.187820	-1344.311523	34.183891	-262.108673
70	0.69000000	-1356.723389	1256.907715	-47.266991	-1326.599976	1260.074829	-383.772339	-1392.753784	1314.104492	-215.740814	-1267.240479	1212.919189	-201.734573	-1474.192993	985.786438	-17.269491	-1384.827881	968.510559	-439.350891	-1284.956726	912.491974	-30.680702	-1306.927185	777.185181	-462.936661	-1308.860107	882.447449	-77.067390	-1292.336670	853.752747	-321.936523	-1468.017700	872.095886	-158.664307	-1467.277466	857.759216	-245.373215	-1467.647583	864.927551	-202.018761	-1433.525635	1022.333069	-226.412964	-1239.286255	1031.571777	-209.702454	-1301.622681	669.624268	24.686630	-1247.147827	441.504944	-41.751961	-1267.996704	313.029480	31.938770	-1242.093994	100.909462	-23.453144	-1286.099731	76.030365	-71.116928	-1132.020630	53.208122	-20.424238	-1360.839355	581.432068	-400.610413	-1360.207397	394.897736	-300.893036	-1403.474487	258.073395	-355.558868	-1463.551147	60.999718	-277.856812	-1510.351318	44.669586	-237.269073	-1344.400513	34.205990	-262.190491
